<svg xmlns="http://www.w3.org/2000/svg" viewBox="0 0 83.28 83.28"><style>
    path {
      fill: #000;
      stroke: #000
    }
    @media (prefers-color-scheme: dark) {
      path {
        fill: #fff;
        stroke: #fff;
      }
    }
  </style><path d="M56.51,36.63H78.75q-1-9.42-5.9-15.54a29.7,29.7,0,0,0-12.77-9.16,47.63,47.63,0,0,0-6-1.73V31.29A10.41,10.41,0,0,1,56.51,36.63Z" /><path d="M56.6,44.52a11.51,11.51,0,0,1-2.54,6.1V71.77a35.69,35.69,0,0,0,13.83-6q9.75-7.21,11-21.3Z" /><path d="M41.74,55q-7.47,0-11.62-3.43T26,41.21v-.09q0-7.2,4.33-10.69T42.17,27c4.24,0,7.53.85,9.9,2.54V9.81l-.44-.09A56.44,56.44,0,0,0,42.08,9a46.46,46.46,0,0,0-19.43,3.82,29.8,29.8,0,0,0-13.07,11,27.92,27.92,0,0,0-3.57,8,35.52,35.52,0,0,0-1.19,9.42v.17q0,11,4.38,18A25.69,25.69,0,0,0,21.71,69.73a46.11,46.11,0,0,0,9,2.46A61.78,61.78,0,0,0,41.15,73a64.07,64.07,0,0,0,10.92-.88V52.46Q48.52,55,41.74,55Z" /><path d="M54.06,1h-2V9.81c.67.12,1.33.25,2,.39Z" /><path d="M52.07,82.28h2V71.77c-.65.14-1.32.27-2,.39Z" /><path d="M52.27,29.62a1.37,1.37,0,0,1-.2-.13v23l.37-.26a11.54,11.54,0,0,0,1.62-1.58V31.29A11.45,11.45,0,0,0,52.27,29.62Z" /><rect x="1" y="1" width="81.28" height="81.28" fill="none" stroke-miterlimit="10" stroke-width="2"/></svg>