<svg xmlns="http://www.w3.org/2000/svg" viewBox="0 0 602.1 269.63"><path d="M485.42,261.58l-.23-43.88h27.66v8.62H495.7v9.08h11.35v8.65H495.73v17.28Z"/><path d="M534.68,261.89c-11,0-17.31-6.89-17.37-19v-5.91c0-12.91,6.05-20.05,17.2-20.1,9,0,14.75,4.93,16.17,13.94h-9.9a5.93,5.93,0,0,0-6.16-5.38c-4.6,0-6.83,3.45-6.8,10.51v6.91c0,7.05,2.29,10.48,6.91,10.48a6.8,6.8,0,0,0,6.6-7c0-.21,0-.43,0-.64h-6.22v-7.44H550.9v4.63C550.79,255.31,545.24,261.89,534.68,261.89Z"/><path d="M562.67,261.22a5.58,5.58,0,1,1,5.57-5.58A5.58,5.58,0,0,1,562.67,261.22Z"/><path d="M431.25,261.89l2.79-44h9.73l11.6,21.66h0l11.54-21.82h9.75l3,43.85h-9.84l-1.89-26.76h0l-9.87,19.51h-5.19l-9.95-19.51h0l-1.89,27Z"/><path d="M394.7,77.39c5.58-3.9,10-13.8,6.58-18.87s-17.81-3.18-22.89,2-8.08,14.58-5.32,18.4S389,81.29,394.7,77.39Z"/><path d="M545.36,89l45.38-5.88c6.94-1.45,11.68-12.49,11.35-16.39a2.62,2.62,0,0,0-.81-1.9,1.43,1.43,0,0,0-.87-.3c-1.14,0-45.3,5.57-50.18,6.3a.31.31,0,0,1-.34-.27.25.25,0,0,1,0-.12c1.7-5.27,18.09-56,18.4-57.1a1.94,1.94,0,0,0-.17-1.47c-.3-.53-2.2-.92-3.12-1.18a9.61,9.61,0,0,0-2.51-.27c-7.83,0-20.77,5.57-24.28,13.74-1.34,3.09-8.5,26.87-14.92,48.45a1.31,1.31,0,0,1-1.08.89c-4.69.53-27.27,3.07-28.24,3.27a13.58,13.58,0,0,0-9,6.16,26.58,26.58,0,0,0-4,13.94,1.48,1.48,0,0,0,1.53,1h0c2.15-.22,17.65-2,34.49-4.74h0c-9,27.6-42.32,42.37-42.32,42.37-1.68-7.49-9.12-33.45-9.43-40.36a24,24,0,0,1,3.43-12.66c1.2-2.17,1.87-3.51,1.2-4.35-1.2-1.5-15.55-6.08-27.35,7.5-4,4.54-60.85,94.42-65.59,94.51s21.18-73.1,17.56-80.24-24.23-5.93-34.71,7.73c-9.84,12.88-45.38,71.73-50.4,72.9-6.8,1.56,10.45-41.82,12.13-57.49.92-8.53-9.23-19.51-15.92-17.59-15.22,4.63-18.9,1.09-18.9,1.09s7.19-16.73,3.48-21.13a13,13,0,0,0-9.7-3.32c-8.14,0-16.73,3.07-20.63,11.15-4.94,10.71,9.76,20.3,7.44,26-8.92,22.3-37.16,58.55-37.83,58.55v-.17a71.35,71.35,0,0,0-13-49.15h0l2.48-2.2C228.3,118,245.64,96,246,68.75,246.34,37.8,219.88-6.77,142.83.87,77.73,7.14,46.2,47.78,43.38,78.09a33.46,33.46,0,0,0,30.55,36.13c1.12.09,2.25.13,3.38.11a58.53,58.53,0,0,0,26.68-7h0c-1.59,4.85-44.41,127.35-44.88,128.24H59C48.12,230.3,32.12,218,31.37,195.12c-.75-28.32,23.5-51.49,23.44-52C48,138.36,11.83,149.68,3,176c-11.4,34.2,9.56,77.27,67.21,90.07,48.87,10.87,97.21-4.18,127.94-31.2,44.07-38.64,77.8-109.58,78.44-110.09s15.84-1.33,18.54.76c5.41,4.12-28.18,76.35-19.51,86.42,4.71,5.57,13.66,3.59,22.94-3.51,19.52-14.92,59.47-85.59,65.21-87.9s-27.88,73.93-18.35,83.63c6.53,6.66,20,1.34,31.12-9,20.49-19.16,64.12-91.67,65.76-92s7.22,37.55,7.17,40.23c0,0-36.39,14.07-36.78,28.85-.55,21.3,14.67,26.6,24.34,26.6a36,36,0,0,0,9.73-1.43c19.77-5.57,30.67-21.32,28.85-51.54,23.87-9.7,34-23.76,33.9-23.28-2.78,9.81-12.6,47.08-3.4,59.8a13.94,13.94,0,0,0,9.82,5.57,34.4,34.4,0,0,0,4.54.31c19.24,0,37.19-15.78,48.84-29,14.47-16.37,24.62-34.66,26-39.87a1.23,1.23,0,0,0-.22-1.11,1.39,1.39,0,0,0-1.06-.56h-.95c-1.64,0-6,1.17-10.9,7.41-17,21.83-35,36.66-45.94,37.81h-1.09a8.38,8.38,0,0,1-5-1.62c-7-5,9.87-61.05,13.22-71A2.31,2.31,0,0,1,545.36,89Zm-367,123C147.7,250.09,87.79,246,84,245.16h0l.23-.19.33-.37c5.85-11.87,21.58-48.45,36.8-86.81h0a164.21,164.21,0,0,0,43.07-5.16,268.75,268.75,0,0,0,32.67-12h0C198.3,143.29,203.79,180.37,178.37,212Zm-52.61-65.65c4.6-11.68,9.09-23.17,13.19-33.68h.17s3.45-.14,4.6-.14h3.68l5.77.14A70.42,70.42,0,0,1,180.6,119l5.58,3h0c-7,6.74-28.5,20.54-60,24.47h-.41A.1.1,0,0,1,125.76,146.39Zm72.49-38.47-1.68,2.45v.2h0a107.56,107.56,0,0,0-47.39-12.44h-4.12s14.55-45.94,16.47-53-35.32-4.82-37.58,1.7-13.94,44.3-15,47.4l-1.06,3c-1.26,0-47.39-4.82-33.15-39.53C80.8,41.48,115.48,8.2,170.51,14.39c75.52,8.53,35,83,27.71,93.53ZM438,188.12c-6.94.64-13.61-7.69-10.88-16.72,2.15-7.28,22.5-14.7,22.5-14.64S452.24,186.84,438,188.12Z"/></svg>