<svg xmlns="http://www.w3.org/2000/svg" xmlns:xlink="http://www.w3.org/1999/xlink" viewBox="0 0 519.52 176.35"><defs><clipPath id="a"><rect x="0.01" width="519.51" height="176.33" fill="none"/></clipPath><clipPath id="b"><rect x="0.01" width="519.51" height="176.32" fill="none"/></clipPath></defs><g clip-path="url(#a)"><g clip-path="url(#b)"><path d="M226.64,24.2c.69-12.59,9.82-22.65,30-24.08,20.46-1.46,33.79,10.37,34.42,11.65s.57,13.12.12,15.78c-1.82.87-9.05,3.2-12.94,4.46,0-2,3.54-18.16-12.95-23.19a15.63,15.63,0,0,0-8.81-.11c-14.35,4.11-8.39,16-4.79,18.63C255.6,30.2,287,45.34,289.81,48c8.15,5.83,8.42,18.26,7.94,23.37-.63,7.74-6.25,20.6-22.47,26.17-18,5-37.81-.27-51.32-11.46V60.52h14.1C239,83.63,258.49,88,261.5,87.81c2.88,0,23.33.75,15.58-24.49-27.44-18.78-48.56-17-50.44-39.12"/><path d="M1.79,14.37C1.85,6.26-.57,5,.79.9H69.7V24s-7.84,5.85-13.43,4.71c-.59-6.14.52-15.78-31.95-14.28v47.5s20,.67,26.53-.41C52,82.15,53.22,81,52.59,82.15s-9.33,6.08-10.27,4.41-2.15-11.39-18-10.07v65.77h28s5.24-.38,6.24-14c4.67-5,16.56-7.85,17.8-8.41,1.06,5-3.15,12-.5,41.44H.9c-2.24-.12.38-14.54.73-21.22.3-5.62-.1-95.69.16-125.67"/><path d="M81,.39V14h3.16C86.5,14,88,15.1,88,18.57V138.14s-1,4.53-5,6c-.86,3-.6,13,0,13.94,4.86-1.61,71.19-31,78.32-34.56V88c-6.84,3.11-15.47,6.82-15.88,8.89-1.91,9.78-7.51,27.05-33.26,26.61V.74C109.68.68,81,.39,81,.39"/><path d="M138.74.93V14.48c.92.63,32.73,40.67,32.71,42s0,60.32,0,63.52c2.94-1.19,18.79-8.19,21.66-9.59V56.65c.64-2.23,27.08-40.2,28.63-42.11.15-5.13.16-11.72,0-13.55h-27.1V14.54h14.77c-.93,1-20.54,29.29-22,30.83-1-1.44-21.49-28.15-23.48-30.83h11.59V.93H138.74"/><path d="M310.72,14.6H304V1.05c.63,0,26.2-.65,28-.64V119.58c-1.72-.53-19.49-8.22-21.25-9.11V14.6"/><path d="M427.52,14.53c0-2.5-.11-11.16,0-13.56H451.2c.78.72,51.32,90.17,52.7,92.6V19.64c-.37-1.08-4.37-5.25-9.22-5.1,0-3.15-.18-10.45,0-13.56H519.5c.06,1.63,0,158.38,0,160.36H503.91V143.67c-1.35-2.16-51.69-88.52-52.57-89.66v79.5c1.14,4.32,6,10,17.82,10.16v17.66H439.87c-.15-9.79,0-126,0-132.29-1.52-7-3.78-13.91-12.31-14.51"/><path d="M432.67,138.83c0-1.2-42.7-137-43.51-138.08H367.48V14.34H374c-.38,2.13-32.36,97.11-33,98.23-.07,2.66,0,9.47,0,11.26,1.4.57,23.38,8.78,25.23,9.58,0-4.53-.11-9.8-.11-13-3.31-1.2-8.14-6.74-8.53-10.14s10.09-30.63,10.58-32c3.08,0,25.56.34,28,.34,1.17,3.65,7.35,32.78,9.79,42.36s-10.7,7.1-11.47,7.12v15.12c4.3,1.77,31.91,11.9,38.19,14.16V138.78M370.52,70.35c.73-2.8,10.76-37.53,11.88-40.42.53,2.23,8.81,31.19,11.21,40.42-2.34,0-20.5.1-23.09,0"/><path d="M170.39,160.57a7.18,7.18,0,0,1-1.14,3.14,10.85,10.85,0,0,1-2.75,2.82,20.35,20.35,0,0,1-4.48,2.4c-4.29,1.71-8.53,3.57-12.73,5.54a4.83,4.83,0,0,1-.67-.89c-.16-.28-.33-.63-.53-1l1.1-1a3.69,3.69,0,0,0,.94-1.1,1.45,1.45,0,0,0,0-1.4L148,164c-1.49-3.31-3-6.63-4.47-9.94a1.4,1.4,0,0,0-.54-.64,1.87,1.87,0,0,0-.78-.27,3.17,3.17,0,0,0-.87,0l-.82.13-1.22.25c-.22-.5-.39-.87-.47-1.11a4.55,4.55,0,0,1-.19-.83q6.4-3,12.93-5.66a27.13,27.13,0,0,1,4.59-1.43,12.31,12.31,0,0,1,3.83-.24,5.76,5.76,0,0,1,2.87,1.1,5.57,5.57,0,0,1,1.75,2.57,4,4,0,0,1,.2,2.14,4.8,4.8,0,0,1-.77,1.76,6.43,6.43,0,0,1-1.25,1.4c-.46.41-.87.74-1.22,1v.07s.07,0,0,.06a14.63,14.63,0,0,1,2-.32,9,9,0,0,1,2.48.1,6.72,6.72,0,0,1,2.36.94,4.15,4.15,0,0,1,1.62,2.2,7.68,7.68,0,0,1,.4,3.29m-7.68-1.47a3.12,3.12,0,0,0-1.46-.84,5.78,5.78,0,0,0-2.27,0,14.74,14.74,0,0,0-3.27,1l-2,.84.53,1.26c.9,2,1.8,4.12,2.7,6.18,1.09-.45,2.17-.9,3.25-1.33a5.86,5.86,0,0,0,3.3-2.52,3.88,3.88,0,0,0,.08-3.15,4.66,4.66,0,0,0-.84-1.4M157,149.62a2.21,2.21,0,0,0-1.06-.82,3.79,3.79,0,0,0-1.67-.17,10,10,0,0,0-2.41.67l-2.29.95c.94,2.3,1.88,4.58,2.84,6.84L155,156a6.12,6.12,0,0,0,2-1.17,3.58,3.58,0,0,0,.92-1.31,2.88,2.88,0,0,0,.13-1.34,8,8,0,0,0-.37-1.33,6,6,0,0,0-.66-1.25"/><path d="M206.67,156.73c-.79.22-1.6.4-2.41.55a11.6,11.6,0,0,1-2.42.22,12,12,0,0,1-2.53-.3,10.13,10.13,0,0,1-2.67-.95,14.76,14.76,0,0,1-3.88-2.72,47.89,47.89,0,0,1-3.8-4l-.79.24-3,.8c.52,1.8,1.05,3.62,1.58,5.43a2,2,0,0,0,.37.75,1,1,0,0,0,.73.24l2.47.11.12.46a3.22,3.22,0,0,0,.16.67,6.47,6.47,0,0,1,.11.71,4.66,4.66,0,0,1,0,.49c-4.11,1.07-8.21,2.27-12.29,3.56-.05-.13-.13-.28-.2-.47s-.15-.39-.23-.59-.13-.4-.19-.57-.12-.33-.15-.44c.54-.32,1.09-.62,1.62-.92a1.65,1.65,0,0,0,.77-1.11,3,3,0,0,0,0-1.46c-.44-1.58-.88-3.17-1.31-4.75l-3.15-10.49a1.56,1.56,0,0,0-.48-.73,1.36,1.36,0,0,0-.88-.34c-.93,0-1.87-.08-2.82-.1l-.12-.37c-.06-.18-.11-.38-.18-.62a6.18,6.18,0,0,1-.14-.67,1.46,1.46,0,0,1,0-.51q7.8-2.46,15.66-4.47a20.87,20.87,0,0,1,4.17-.6,11.73,11.73,0,0,1,3.73.43,6.84,6.84,0,0,1,2.87,1.68A6.08,6.08,0,0,1,199,139a6.68,6.68,0,0,1-.46,3.9,9.26,9.26,0,0,1-2.91,3.67c.61.72,1.33,1.5,2.12,2.35a21.88,21.88,0,0,0,2.6,2.4,15.37,15.37,0,0,0,2.86,1.85,6.3,6.3,0,0,0,3.07.74c.11.94.24,1.87.36,2.82m-14.92-15.48a3.9,3.9,0,0,0-2.61-3.07,9.89,9.89,0,0,0-5.42.23c-.59.15-1.16.31-1.74.48l2.4,8.87c.93-.28,1.86-.54,2.78-.79a7.89,7.89,0,0,0,4.07-2.13,4.07,4.07,0,0,0,.47-3.59h0"/><path d="M234.81,152.2q-10.89.75-21.69,2.52a7,7,0,0,1-.39-1.2,6.43,6.43,0,0,1-.16-1.07l1.5-.61a4.31,4.31,0,0,0,1.09-.6.91.91,0,0,0,.42-.86c-.28-2-.54-4.11-.8-6.17-.47-3.27-1-6.56-1.42-9.83-.12-.78-.32-1.27-.61-1.45a2.9,2.9,0,0,0-.93-.38l-2.36-.54c-.09-.54-.16-1-.22-1.31a2.11,2.11,0,0,1,0-1q11.7-1.86,23.52-2.72c.13,2,.26,4,.4,6a7.45,7.45,0,0,1-1.38.26c-.58.09-1.06.15-1.41.18a4.9,4.9,0,0,0-.65-1.39,3.38,3.38,0,0,0-.83-.77,2.73,2.73,0,0,0-1-.32,5.43,5.43,0,0,0-1.14,0c-2.29.17-4.55.36-6.83.59l.9,7.64c3.53-.5,7.06-.91,10.61-1.26l.27,3.65q-5.23.33-10.5.87l.13,1c.3,2.26.64,4.51,1,6.75,1.6-.25,3.21-.49,4.81-.71a14.58,14.58,0,0,0,1.84-.36,5.52,5.52,0,0,0,1.59-.66,4.6,4.6,0,0,0,1.25-1.12,5.69,5.69,0,0,0,.88-1.8l2.74.38c-.21,2.1-.43,4.21-.63,6.32"/><path d="M284,130.91a3.68,3.68,0,0,0-1,.63,5.74,5.74,0,0,0-.79.92q-6,9.72-11.29,19.64c-1.57.29-3.15.6-4.71.92q-2.27-7.35-4.86-14.71-3.66,6.45-7,13c-1.54.42-3.07.84-4.59,1.28q-3.42-11-7.39-21.84A2.62,2.62,0,0,0,242,130a3.17,3.17,0,0,0-.87-.63l-1.24-.67v-1.1a2.87,2.87,0,0,1,.16-1c4.4-.19,8.8-.28,13.2-.24,0,.41.07.81.07,1.21a6.58,6.58,0,0,1-.06,1.1l-1.83.54c-.75.24-1.16.63-1.23,1.16a4.29,4.29,0,0,0,.22,1.85c1.27,4.18,2.46,8.36,3.61,12.55q2.79-5.47,5.83-10.88c-.26-.77-.53-1.53-.8-2.29l-.42-.9c-.14-.39-.3-.77-.47-1.15s-.38-.67-.59-1v-1.1a4.85,4.85,0,0,1,.1-1q5.82.14,11.61.51a5.16,5.16,0,0,1,.16.52,1.77,1.77,0,0,1,0,.46,3,3,0,0,1-.06.54c0,.21,0,.49-.09.82a9,9,0,0,0-1.16.46,2,2,0,0,0-1.32,1.16,3.05,3.05,0,0,0,.08,1.77c1.33,4.27,2.59,8.56,3.78,12.84q3-5.88,6.28-11.72a3.61,3.61,0,0,0,.45-1.29,2.61,2.61,0,0,0-.07-1,1.83,1.83,0,0,0-.45-.74,3.16,3.16,0,0,0-.64-.44l-1.36-.59c0-.34.05-.69.09-1.08a3.34,3.34,0,0,1,.38-1.22c3.17.29,6.35.64,9.51,1a2.88,2.88,0,0,1,.08,1.05,8.47,8.47,0,0,1-.16,1.11l-.78.33"/><path d="M299.84,155.22a7.18,7.18,0,0,1-.47,1.19c-4-.82-8.12-1.54-12.19-2.16a2.6,2.6,0,0,1,0-1.11c.07-.31.13-.66.2-1.06l1.38-.15a3.82,3.82,0,0,0,1.24-.47,1.7,1.7,0,0,0,.85-1.22l1-5.42q.86-5.13,1.72-10.26a1.57,1.57,0,0,0-.1-.8,2.8,2.8,0,0,0-1-1.18c-.19-.14-.38-.27-.58-.39l-1.36-.79c.06-.39.1-.75.12-1.05a3,3,0,0,1,.33-1.09q6.84,1,13.64,2.41A7.71,7.71,0,0,1,304,134h-1.83a1.61,1.61,0,0,0-1.3.58,2.48,2.48,0,0,0-.5,1q-1,5.16-2,10.28l-1.07,5.95a1.25,1.25,0,0,0,.06.72,1.34,1.34,0,0,0,.58.5c.73.31,1.44.61,2.15.94-.07.41-.18.8-.27,1.14"/><path d="M340.49,144.63a3.05,3.05,0,0,0-1.46.54,2.41,2.41,0,0,0-.95,1.23c-2.21,6.16-4.41,12.35-6.6,18.51-1.71-.09-3.4-.16-5.09-.22q-3.84-11.06-8.82-22l-.28-.07c-.19.93-.38,1.86-.59,2.8l-1.26,4.73-1.29,5.24a2.21,2.21,0,0,0-.1.92c0,.2.25.4.63.63l2.84,1.67-.11.42a5.29,5.29,0,0,1-.21.6c-.09.2-.16.41-.24.59a2.23,2.23,0,0,1-.2.41c-3.59-1-7.2-2-10.83-2.79a10,10,0,0,1,.12-1.07,5.12,5.12,0,0,1,.22-1h1.86a1.51,1.51,0,0,0,.86-.27,4.92,4.92,0,0,0,.72-.65,7.66,7.66,0,0,0,.59-.86,4.49,4.49,0,0,0,.35-.88c.35-1.29.69-2.58,1-3.87.87-3.45,1.74-6.92,2.62-10.37a1.76,1.76,0,0,0-.08-1.13,2.28,2.28,0,0,0-.62-.91c-.72-.56-1.43-1.11-2.16-1.65a2.6,2.6,0,0,1,.09-.36l.12-.55c.05-.19.1-.37.16-.54a2.05,2.05,0,0,1,.16-.38c3.08.72,6.17,1.49,9.24,2.33q5,10.5,9,21.12l.26.09c.33-1.21.65-2.42,1-3.63.92-2.69,1.83-5.4,2.75-8.09a2.6,2.6,0,0,0,0-1.41,2.64,2.64,0,0,0-.71-1.23c-.69-.62-1.39-1.24-2.1-1.85a2,2,0,0,1,.12-.34c.05-.15.12-.36.2-.54s.13-.35.2-.51a1.2,1.2,0,0,1,.23-.37c3.69,1.19,7.35,2.44,11,3.79a6.86,6.86,0,0,1-.22.92c-.1.33-.19.63-.27.85q-1.12.09-2.22.21"/><path d="M358.39,176c-.69-.12-1.39-.27-2.07-.45s-1.37-.42-2.09-.69-1.5-.61-2.34-1a28.25,28.25,0,0,1-5.52-3.29,13.3,13.3,0,0,1-3.54-4,10.45,10.45,0,0,1-1.37-4.82,13.88,13.88,0,0,1,1.09-5.68,10.82,10.82,0,0,1,3-4.35,12.92,12.92,0,0,1,4.8-2.61,16.47,16.47,0,0,1,5.93-.57,18.67,18.67,0,0,1,6.38,1.72c1,.46,1.9.91,2.58,1.29a21.09,21.09,0,0,1,1.92,1.23,16.19,16.19,0,0,1,1.69,1.41c.55.51,1.19,1.14,1.94,1.87L368,161.62a7,7,0,0,1-1-.46c-.35-.19-.77-.43-1.28-.74a7,7,0,0,0-1-4,8.25,8.25,0,0,0-3.61-2.92,11.2,11.2,0,0,0-3.48-1,7.08,7.08,0,0,0-3.29.43,7.79,7.79,0,0,0-2.9,2,12.4,12.4,0,0,0-2.32,3.78,8.52,8.52,0,0,0-.77,4,7.3,7.3,0,0,0,1.06,3.33,10.33,10.33,0,0,0,2.46,2.73,21.39,21.39,0,0,0,3.48,2.22l.59.27,2.95-6.16c2,1,4,2,6,3-1.41,2.75-2.82,5.49-4.21,8.25-.81-.09-1.57-.2-2.27-.32"/></g></g></svg>