<svg xmlns="http://www.w3.org/2000/svg" viewBox="0 0 598.12 338.17"><path d="M113,81.14a66.54,66.54,0,0,1-2.67,19.38,40.56,40.56,0,0,1-8,15,36,36,0,0,1-13.48,9.7,48.77,48.77,0,0,1-19,3.45,94.75,94.75,0,0,1-9.83-.51,83.62,83.62,0,0,1-10.08-1.75l1.56-17.21a5.65,5.65,0,0,1,1.84-3.67,6.48,6.48,0,0,1,4.46-1.4,18.29,18.29,0,0,1,3.68.49,24.62,24.62,0,0,0,5.22.48A21.51,21.51,0,0,0,74,103.88,11.62,11.62,0,0,0,79.26,100a19.29,19.29,0,0,0,3.17-7.21,47.92,47.92,0,0,0,1-11V0h29.59Z"/><path d="M210.42,103.92A27.14,27.14,0,0,0,221,102a21.58,21.58,0,0,0,7.9-5.65,24.6,24.6,0,0,0,4.93-8.94,39,39,0,0,0,1.71-12V0h29.59V75.37a59.16,59.16,0,0,1-3.79,21.47,48.16,48.16,0,0,1-10.88,16.91,49,49,0,0,1-17.2,11,68.33,68.33,0,0,1-45.68,0,49.09,49.09,0,0,1-17.2-11,47.51,47.51,0,0,1-10.82-16.91,59.13,59.13,0,0,1-3.76-21.47V0h29.59V75.28a39.37,39.37,0,0,0,1.69,12,25.42,25.42,0,0,0,4.94,9,20.94,20.94,0,0,0,7.91,5.69A27.12,27.12,0,0,0,210.42,103.92Z"/><path d="M420.18,0V127.23H404.8a13,13,0,0,1-5.71-1.1,13.72,13.72,0,0,1-4.58-3.78l-60-75.85c.24,2.28.41,4.48.49,6.59s.13,4.12.13,6v68.16h-26V0h15.53a27.05,27.05,0,0,1,3.24.17,8.14,8.14,0,0,1,2.36.66,8.24,8.24,0,0,1,2,1.35,26.42,26.42,0,0,1,2.12,2.36L394.93,81c-.28-2.43-.49-4.82-.59-7.12s-.19-4.46-.19-6.49V0Z"/><path d="M495.45,22.7V52.39h40V74.23h-40v30.3h52.22v22.7H465.75V0h81.92V22.7Z"/><path d="M80.17,235.44a11.14,11.14,0,0,1-2.75,3.13,6.24,6.24,0,0,1-3.72,1.06,9,9,0,0,1-4.23-1.27l-5.24-2.83a42.72,42.72,0,0,0-6.68-2.85A27.31,27.31,0,0,0,49,231.43c-5.54,0-9.66,1.16-12.36,3.53a12,12,0,0,0-4.06,9.55A8.83,8.83,0,0,0,35,250.85a21.17,21.17,0,0,0,6.34,4.38,77.38,77.38,0,0,0,9.09,3.36c3.39,1,6.88,2.15,10.44,3.4a96.48,96.48,0,0,1,10.44,4.4,34.51,34.51,0,0,1,9,6.51,29.66,29.66,0,0,1,6.34,9.57A34.09,34.09,0,0,1,89.11,296,44.12,44.12,0,0,1,86,312.54a38.16,38.16,0,0,1-8.86,13.4,40.81,40.81,0,0,1-14.32,9,53.69,53.69,0,0,1-19.2,3.21,61.2,61.2,0,0,1-12.08-1.23,71.1,71.1,0,0,1-22.77-8.72A47.35,47.35,0,0,1,0,321.46l8.73-13.8a9,9,0,0,1,2.75-2.49,7.25,7.25,0,0,1,3.72-1,10,10,0,0,1,5.28,1.67c1.78,1.1,3.78,2.33,6,3.66a46.89,46.89,0,0,0,7.74,3.68,29.08,29.08,0,0,0,10.29,1.67,19.56,19.56,0,0,0,12.53-3.55q4.47-3.54,4.46-11.23a10.66,10.66,0,0,0-2.45-7.25,18.72,18.72,0,0,0-6.34-4.62,60.23,60.23,0,0,0-9-3.24q-5.07-1.4-10.4-3.08a76.29,76.29,0,0,1-10.4-4.23,32.06,32.06,0,0,1-9-6.55A30,30,0,0,1,7.55,261a40.13,40.13,0,0,1-2.46-15A35.62,35.62,0,0,1,8,232a36,36,0,0,1,8.45-12.13,42,42,0,0,1,13.7-8.46,50.85,50.85,0,0,1,18.47-3.23,70.35,70.35,0,0,1,11.41.93,59.2,59.2,0,0,1,10.57,2.71,57.66,57.66,0,0,1,9.3,4.22,42.88,42.88,0,0,1,7.74,5.65Z"/><path d="M238.68,209.6V336.83H209V283H157.29v53.79h-29.7V209.6h29.7v53.17H209V209.6Z"/><path d="M313.94,336.83H284.35V209.6h29.59Z"/><path d="M470.61,209.6V336.83H455.25a13.25,13.25,0,0,1-5.73-1.1,13.94,13.94,0,0,1-4.59-3.8l-60-75.88c.23,2.26.4,4.46.49,6.6s.12,4.22.12,6v68.2h-26V209.6h15.53a22,22,0,0,1,3.24.17,7.82,7.82,0,0,1,2.36.65,7.62,7.62,0,0,1,2,1.35,23.44,23.44,0,0,1,2.11,2.35l60.53,76.42c-.29-2.45-.5-4.82-.61-7.12s-.19-4.46-.19-6.51V209.6Z"/><path d="M545.87,232.3v29.58h40v21.84h-40V314h52.25v22.72H516.2V209.6h81.92v22.7Z"/></svg>