<svg xmlns="http://www.w3.org/2000/svg" viewBox="0 0 716.53 280.85"><path d="M699.44,217.87c-10.2,0-17.45-7.49-17.45-18.12s7.13-18.11,17.45-18.11,17.09,7.38,17.09,18.11S709.64,217.87,699.44,217.87Z"/><path d="M384.55,61.08l-2.34,21.35C374.15,66.34,356.56,58,335.67,58,295.7,58,264,89.67,264,137.94c0,47.95,30.74,79.93,70.09,79.93,24.29,0,39.79-11.4,47.65-25.16l2.77,22.08h28.28V61.08Zm-46.49,128.2c-26.11,0-44.68-21.47-44.68-52,0-30.8,18.25-52,44.68-52,26.11,0,43.72,21.16,43.72,52C381.78,167.81,364.17,189.28,338.06,189.28Z"/><path d="M527.55,0V180.37s0,34.56,38.62,34.56h16.41V187.56H568.53c-6.44,0-10.31-4.83-10.31-17.39V0Z"/><path d="M716.53,61.08,658.68,232.16c-8.92,27.39-24.24,48.69-56.92,48.69-19.18,0-32.62-10.23-36.93-14.84l12.93-22.46c4.92,4,12.92,8.92,22.77,8.92,12.92,0,22.76-11.08,27.38-24.62l4.31-12.92h-9.69L568.65,61.08h34.16l40,123.45h.47L683.6,61.08Z"/><path d="M109.41,187.56v27.35H0V0H30.72V187.56Z"/><path d="M253.55,145.69H138.33c2.47,27.38,17.23,45.53,46.46,45.53,14.46,0,29.53-7.38,36-22.46h30.46c-7.7,32.31-37.8,49.24-66.77,49.24-47.38,0-76.61-32-76.61-80.61,0-46.76,32-79.38,74.15-79.38,38.36,0,71.5,23.6,71.69,77.8C253.73,139,253.71,142.11,253.55,145.69ZM223.86,122c-.61-20.31-15.69-38.46-40.91-38.46-22.77,0-38.77,15.08-43.39,38.46Z"/><path d="M494,27.37h23.2V0H483.66c-22.57,0-37.2,17.13-37.2,38.53V61.08h-23.3V86.93h23.3v128h30.73l.14-128h38.28V61.08H477.33l-.14-16.65C477.19,31.38,483.31,27.37,494,27.37Z"/></svg>