<svg xmlns="http://www.w3.org/2000/svg" viewBox="0 0 762.59 405.87"><path d="M4.16,1.88h33.5l12.92,67,12.83-67H96.88V111.94H76V28L60,111.94H41.07L25,28v83.94H4.16Z"/><path d="M109.93,57q0-27,11.24-42T152.49,0q20.58,0,31.72,14.75t11.13,41.33q0,19.31-4.86,31.65T176.42,107q-9.19,6.87-22.91,6.87-13.95,0-23.09-5.93T115.61,89.12Q109.92,76.28,109.93,57Zm25.47.15q0,16.67,4.64,24t12.62,7.28a14.21,14.21,0,0,0,12.71-7.13q4.5-7.14,4.5-25.61,0-15.54-4.7-22.71t-12.73-7.17q-7.71,0-12.37,7.28t-4.67,24Z"/><path d="M209.23,1.88H233l31,60.89V1.88h24V111.94H264L233.18,51.51v60.43h-24Z"/><path d="M299.2,1.88h77.43V29.06h-26v82.88H325.18V29.06h-26Z"/><path d="M441.8,1.88h25.41V67.45a72,72,0,0,1-2.28,18.42A43.24,43.24,0,0,1,457.79,101q-4.86,6.48-10.2,9.11-7.43,3.67-17.83,3.68a86.18,86.18,0,0,1-13.13-1.12,28.31,28.31,0,0,1-11.89-4.47A33.42,33.42,0,0,1,396,98.74a38.89,38.89,0,0,1-5.43-12.68,86.46,86.46,0,0,1-2.36-18.61V1.88h25.41V69q0,9,3.74,14.07a13.18,13.18,0,0,0,18.5,2.26,13,13,0,0,0,2.2-2.18q3.74-5,3.74-14.15Z"/><path d="M539,66.9l22.32,9Q559,88.44,554.2,96.85a34.15,34.15,0,0,1-12,12.69q-7.2,4.27-18.2,4.28-13.44,0-22-5.21T487.3,90.26q-6.19-13.12-6.19-33.61,0-27.31,10.88-42T522.77,0q15.57,0,24.48,8.41T560.5,34.24L538,40.92a30,30,0,0,0-2.47-7.36,17,17,0,0,0-5.23-6,12,12,0,0,0-6.92-2.1q-8.65,0-13.27,9.3-3.48,6.9-3.48,21.67,0,18.3,4.16,25.09t11.69,6.78q7.32,0,11-5.48T539,66.9Z"/><path d="M573.77,1.88h25.47V43.47L625.92,1.88H659.8L629.72,43.42l31.43,68.52H629.78L612.4,66.68l-13.16,18.4v26.86H573.77Z"/><path d="M661.26,1.88h28.29L706.16,39,722.8,1.88H751l-32,64V112H693.37V65.84Z"/><path d="M738.13,81.31h24.46v30.63H738.13Z"/><path d="M59.32,189.81l22.33,9q-2.25,12.54-7.09,20.94a34.15,34.15,0,0,1-12,12.69q-7.17,4.29-18.25,4.28-13.44,0-22-5.21T7.65,213.17Q1.45,200,1.46,179.56q0-27.31,10.88-42t30.79-14.67q15.57,0,24.49,8.41t13.24,25.83l-22.49,6.68a30.4,30.4,0,0,0-2.48-7.36,16.79,16.79,0,0,0-5.23-6,12,12,0,0,0-6.91-2.11q-8.67,0-13.27,9.3Q27,164.56,27,179.33q0,18.3,4.16,25.09t11.7,6.79q7.3,0,11-5.49T59.32,189.81Z"/><path d="M90.81,179.9q0-27,11.25-42t31.32-15q20.58,0,31.71,14.76T176.22,179q0,19.29-4.86,31.64T157.3,229.86q-9.2,6.87-22.91,6.87-13.95,0-23.08-5.93T96.49,212Q90.81,199.19,90.81,179.9Zm25.47.15q0,16.66,4.64,23.95t12.63,7.28a14.21,14.21,0,0,0,12.7-7.13q4.5-7.14,4.5-25.6,0-15.54-4.69-22.72t-12.74-7.17q-7.71,0-12.37,7.29t-4.67,24.1Z"/><path d="M189.94,124.79h25.48v83h39.75V234.9H189.94Z"/><path d="M267.09,124.79h37.84q11.19,0,18.08,4a32.33,32.33,0,0,1,11.39,11.64,55.93,55.93,0,0,1,6.52,17.64,108.31,108.31,0,0,1,2,21.33q0,17.64-3,27.36a48.06,48.06,0,0,1-8.35,16.3q-5.35,6.57-11.48,8.74a45.6,45.6,0,0,1-15.18,3H267.09Zm25.47,24.93v60.13h6.24q8,0,11.36-2.36t5.29-8.26q1.91-5.89,1.91-19.11,0-17.49-4.27-24t-14.17-6.45Z"/><path d="M352.9,204.22h24.46v30.64H352.9Z"/><path d="M0,324l24.23-2q.8,7.89,3.21,12,3.93,6.67,11.25,6.68,5.45,0,8.4-3.42a12,12,0,0,0,.14-15.58q-2.8-3.37-13-6.38-16.75-5-23.9-13.36t-7.2-21.25a35.93,35.93,0,0,1,3.69-16,27.4,27.4,0,0,1,11.07-11.86q7.4-4.32,20.27-4.32,15.81,0,24.1,7.85t9.87,25l-24,1.88q-1-7.44-4-10.81a10.85,10.85,0,0,0-8.47-3.38q-4.44,0-6.69,2.51a8.84,8.84,0,0,0-2.25,6.12,6.9,6.9,0,0,0,1.86,4.73q1.8,2.18,8.55,4.06,16.69,4.8,23.92,9.72a29.2,29.2,0,0,1,10.52,12.2,39.18,39.18,0,0,1,3.29,16.29,43.68,43.68,0,0,1-4.39,19.52,30.92,30.92,0,0,1-12.26,13.55q-7.87,4.62-19.85,4.62-21,0-29.12-10.81T0,324Z"/><path d="M87.77,250.32h23.79l31,60.89V250.32h24V360.38h-24L111.73,300v60.43h-24Z"/><path d="M233.09,342.22H204.17l-4,18.16h-26l31-110.06H233l31,110.06H237.21Zm-5.29-23.8-9.1-39.57-9,39.57Z"/><path d="M324.78,315.34l22.32,9q-2.25,12.54-7.08,20.94A34.13,34.13,0,0,1,328,358q-7.17,4.28-18.25,4.28-13.44,0-22-5.21t-14.7-18.35q-6.19-13.12-6.19-33.61,0-27.32,10.88-42t30.79-14.67q15.57,0,24.49,8.41t13.24,25.83l-22.49,6.68a30.4,30.4,0,0,0-2.48-7.36,16.79,16.79,0,0,0-5.23-6,12,12,0,0,0-6.91-2.11q-8.67,0-13.27,9.3-3.5,6.9-3.49,21.67,0,18.3,4.16,25.09t11.7,6.78q7.31,0,11.05-5.48T324.78,315.34Z"/><path d="M359.59,250.32h25.47v41.59l26.68-41.59h33.88l-30.08,41.54L447,360.38H415.6l-17.38-45.26-13.16,18.41v26.85H359.59Z"/><path d="M451,324l24.24-2q.78,7.89,3.2,12,3.93,6.67,11.25,6.68,5.44,0,8.4-3.42a12,12,0,0,0,.14-15.58q-2.81-3.37-13-6.38-16.75-5-23.9-13.36t-7.2-21.25a35.93,35.93,0,0,1,3.69-16,27.4,27.4,0,0,1,11.07-11.86q7.39-4.32,20.27-4.32,15.81,0,24.1,7.85t9.87,25l-24,1.88q-1-7.44-4-10.81a10.85,10.85,0,0,0-8.47-3.38q-4.44,0-6.69,2.51a8.84,8.84,0,0,0-2.25,6.12,6.9,6.9,0,0,0,1.86,4.73q1.8,2.18,8.55,4.06,16.69,4.8,23.92,9.72a29.2,29.2,0,0,1,10.52,12.2,39.18,39.18,0,0,1,3.29,16.29,43.68,43.68,0,0,1-4.39,19.52,30.92,30.92,0,0,1-12.26,13.55q-7.87,4.62-19.85,4.62-21,0-29.12-10.81T451,324Z"/><path d="M537.1,329.75h24.46v30.63H537.1Z"/><path d="M552.47,300.8v-.7l5.69,3.64c.15.09.39.17.42.29.45,2.13,2.08,1.43,3.36,1.37s2.63.29,3.34-1.08c-2.06-1.22-4.27-2.15-6-3.65s-3-3.57-4.55-5.48c1.68-1.69-1.13-2.32-1.08-4l4-.25a7.31,7.31,0,0,0-.18-1.14c-.53-1.47,0-1.85,1.39-1.42s2.92.91,4.39,1.29c5.67,1.47,10.59.31,14.34-4.35,1.42-1.76,3.17-3.4,3.63-6.39l-6.07,6.33c1.85-2.8,4-5.37,5.91-8.07,1.53-2.13,2.86-4.41,4.22-6.65s2.56-4.48,3.93-6.66c2.65-4.24,6.66-7.05,10.59-9.93s7.89-4.62,12.73-4.33a1.72,1.72,0,0,0,1.19-.52c1.78-2,3.43-4.13,5.25-6.09,2.16-2.31,4.43-4.51,6.69-6.71a1.9,1.9,0,0,1,1.35-.56c2,.41,3.93.95,5.89,1.45v.33l-6.78,1.61,5.5,5.05c-2.85-.65-5.19-1.13-7.49-1.74-1.06-.29-1.35,0-1.25,1.08l10.91,2.66c1.25-2.16-.86-2.41-1.65-3.3s-2-1.9-3.23-3.06c2.33-.52,4.29-.89,6.2-1.43a6.86,6.86,0,0,0,1.74-1.23c-.09-.17-.19-.34-.29-.51l-8.3-2.12c1.88-2.56,4.57-3,7-3.84,4.59-1.61,9.23-3,14.27-2.1,2,.35,4.07-.07,6.12-.07a38.68,38.68,0,0,1,4.69.15c2.5.29,5,1,7.48,1.08,3.1.11,6.12-.61,8.33-3s4.27-5.14,6.56-7.56c1.22-1.3,1.23-2.58.9-4.42-1.73,2.29-3.93,3-6.4,3.52a3.6,3.6,0,0,1,.12-.8c1.37-3.42,2.75-6.85,4.15-10.25a3,3,0,0,1,.8-.87c.66-.62,1.58-1.09,2-1.84,1.42-2.89,2.65-5.86,4-8.85L686,195l-.3-.54,2-1c-.16-.19-.31-.39-.47-.59l-6.54,4c.17-.77.27-1.18.39-1.71l-3.43,2.69c.44-2.3,5-7.77,6.7-8.67l2.22-1.15-3.13-1.55a.87.87,0,0,1,.07-.42l4.45-.82a2.63,2.63,0,0,1,.1-.56l-3.65-2.21c2.12-.68,4-1.3,5.9-1.89.66-.21,1.55-.14,2-.56,1.69-1.57,3.25-3.3,5-5.08l-8.5-2a1.39,1.39,0,0,0-.07-.53l4.87-1.6c0-.54-.09-1-.14-1.56a42.71,42.71,0,0,1,5.06,0c1.72.21,2.53-.43,2.75-2L695.38,166v-.61l2.53-.81v-.33h-3a1.85,1.85,0,0,1,1.09-1c1.94-.66,3.91-1.25,5.85-1.93,4.29-1.49,7.58-4,9.46-8.36a24.71,24.71,0,0,0,2.05-6.28,3.75,3.75,0,0,1,1-1.79c1-1.12,2.17-2.15,3.27-3.21h1c.26.73.55,1.46.77,2.2.77,2.57,1.5,5.15,2.29,7.71a1.41,1.41,0,0,0,.78.66c1.91.74,3.84,1.44,5.78,2.12a.9.9,0,0,0,.79-.14A46.87,46.87,0,0,0,732.9,150c1.43-1.95,2.63-4.09,4.16-6.51.14.93.25,1.43.28,1.93.28,4,.6,8.09.76,12.13a7.2,7.2,0,0,1-.75,3.12,3.19,3.19,0,0,0,.87,4.18,46.6,46.6,0,0,1,4.5,4.82,2.91,2.91,0,0,0,2.4,1.44c1.67,0,2.48,1.1,3,2.52.26.7.54,1.38.75,1.93-.76,2-2.26,3.72-1.06,6a5.25,5.25,0,0,1,.87,3c-.63,3.08.57,5.26,2.74,7.22a28.07,28.07,0,0,1,2.43,2.79c.25.31.61.67.62,1,.08,2.41.08,4.81.12,7.22,0,.81-.2,1.85.2,2.39,2.32,3,2.7,6.71,3.42,10.26.33,1.62.46,3.28.69,4.92v.71a6.19,6.19,0,0,0-.34.8c-.9,3.95-2.47,7.06-7,8.11-4.07,1-6.62.6-9-2.81-.93-1.3-1.32-3-2.08-4.43-.5-1-1-2.35-1.84-2.63-3-1-4.94-3.28-7.37-5-.43-.29-.88-.54-1.56-1a9.64,9.64,0,0,0-.85,2.2c-.2,2.09-.31,4.19-.36,6.29q-.33,13.22-.61,26.42a6.78,6.78,0,0,0,.27,2.76,70.81,70.81,0,0,1,5.29,16.73c.68,4.23,1.78,8.38,2.67,12.57a2.48,2.48,0,0,1,0,1.21c-2.11,6.7-3,13.77-6.25,20.12a23.11,23.11,0,0,0-2.06,9c-.49,6.84-1.27,13.66-2.06,20.47-.29,2.5-1.15,4.93-1.4,7.43-.56,5.42-1,10.86-1.29,16.31-.15,3-.58,5.91.85,8.94.66,1.42,0,4.11-1.06,5.52-1.64,2.21-4.1,3.83-6.21,5.69-2.41,2.13-4.95,4.12-7.2,6.4a16.35,16.35,0,0,0-2.33,4c-.35.66-.4,1.56-.88,2.06-2,2.07-6.67,1.89-8.52-.23-1.14-1.32-4.84-.87-5.54.7a31.65,31.65,0,0,0-2.24,5.54,5.87,5.87,0,0,1-3.7,4.37c-1.73.66-3.89,1.21-5.56.73a7.7,7.7,0,0,1-5.6-6.16c-.19-.89-.32-1.81-.46-2.72a16.47,16.47,0,0,0-.82,3.25c-.49,2.57-2.56,5.15-4.45,5.05-3.72-.21-7.22-1.25-9.41-4.58-.8-1.21-.93-2.84-1.58-4.16a5.15,5.15,0,0,1-.32-4.69,18.13,18.13,0,0,0,1.82-5.11c.23-2.31,1.23-3,3.35-3,1.52,0,1.78-.8,1.4-2.36-.55-2.25-.9-4.55-1.39-6.81-.38-1.76-.5-3.66-1.3-5.2-2.93-5.63-8-9.83-10.78-15.61-.72-1.51-2.26-2.68-2.8-4.22-.65-1.84-1.29-4.12-.73-5.83.64-2,2.46-3.65,4-5.28,1.71-1.85,3.68-3.45,5.43-5.26,2.49-2.56,4.78-5.27,5.58-9-3.73-.67-7.6-.2-11-2.2s-6.65-3.66-10.39-5.71c-.79,1.66-1.91,3.19-2.21,4.87a51.14,51.14,0,0,0,.18,16.79c.54,3.65,1,7.33,1.61,11,.71,4.05,1.79,8,4.28,11.4a11,11,0,0,1,2.19,5.8c.44,4.54,1.38,9,.68,13.64-.13.89.62,1.95,1,2.9.81,1.88,1.68,3.74,2.49,5.62,1.55,3.58,3,7.21,4.65,10.77,1,2.27,2.35,4.41,3.45,6.66a3,3,0,0,1,.06,1.68c-.43,3.13-2.9,4.08-5.4,5H653c-.71-.35-1.43-.69-2.13-1.05a17.57,17.57,0,0,1-2.26-1.22c-2.23-1.56-2.6-4.06-2.16-6.31.67-3.43-.29-6.4-1.59-9.34-1.9-4.32-2.27-9.48-6.66-12.48a.84.84,0,0,1-.2-.29,51.41,51.41,0,0,1-6.63-13.93c-.17-.58-.37-1.41-.1-1.81,1.05-1.52.89-3.14.64-4.75a40,40,0,0,0-1.36-7.19c-1.07-3.09-2.8-5.94-4-9a100,100,0,0,1-5.09-16.5,40.86,40.86,0,0,0-3.67-11.35,47.6,47.6,0,0,1-4.68-14.12c-.22-1.15-.53-2.28-.87-3.73-.68,4-1.11,7.57-2,11.07a9.71,9.71,0,0,1-2.65,4.61,56.86,56.86,0,0,1-6.84,4.91c-1.06.72-2.44,1.09-3.27,2-2.78,3-5.37,6.21-8,9.34l-1.29,1.54-.3-.22,6.58-10.26c-.07-.17-.15-.34-.22-.5-3.38,1.07-6.87,1.89-10.12,3.26a9.37,9.37,0,0,1-7.5.33l2.2-.89a53.08,53.08,0,0,0-9-.28,10.87,10.87,0,0,1-8.07-2.76c-3-2.54-4.67-6-6.5-9.34-.88-1.61-1.87-3.18-2.81-4.77m129.26,25.93a46.14,46.14,0,0,1-5.63,3.13c-4.24,1.66-6.86,5-9.36,8.5-.85,1.19-.86,3-1.67,4.21-1.35,2.07-1.63,3.93-.08,6,.49.64.72,1.48,1.19,2.15,3.12,4.46,6.21,8.94,9.43,13.33,1.68,2.3,2.8,4.75.6,7.65a6.18,6.18,0,0,0-1.37,4.41c.22,2.4.4,4.82.61,7.36,1.23-1.7,2.43-3.27,3.53-4.91.76-1.15,1.46-2,2.94-.94.34.25,1,.11,1.15.12.67-2.59.77-5.27,2-7.25a53,53,0,0,0,5.68-13.21c1-3.45,1.62-7,0-10.66a27.87,27.87,0,0,1-1.71-6.27c-1-5.35-2.9-10.12-7.35-13.59m14.52-6.86a44.56,44.56,0,0,0,1.51,4.76c1.09,2.45,2,5.2,3.69,7.12A13,13,0,0,1,705,341.5a25.63,25.63,0,0,1,0,3.16,5.63,5.63,0,0,1-.77,2.35c-1.29,2-3.34,3.8-3.94,6-1.68,6-2.76,12.24-4.08,18.38-.2.9.09,1.21,1,1.34,1.72.23,3.4.67,5.11,1a1,1,0,0,0,.65,0c2-1.31,4.14-2.43,4.66-5.15a24,24,0,0,1,1.49-5.05,14,14,0,0,0,.84-7.39c-.77-7-1.58-14-2.3-21-.31-3,.3-6.25-2.13-8.75a.81.81,0,0,1-.14-.33,5.92,5.92,0,0,0-3.43-3.8c-1.71-.86-3.57-1.44-5.82-2.33m-69.43-64.72c.41-1.47.76-2.8,1.14-4.2s.82-3.16.82-3.16,2.58.75,4.1,1.06l.6-1.59c-3.08-.7-7.63-1.8-10.71-2.41a6.76,6.76,0,0,0-.38,1.47c1.39.35,3.11.72,4.58,1.09L624.74,256c.63.16,1.18.15,1.8.32"/></svg>