<svg xmlns="http://www.w3.org/2000/svg" viewBox="0 0 664.88 735.11"><path d="M127.08,150.1a21.54,21.54,0,0,1,17.27-9A21.6,21.6,0,0,1,168.5,116a21.61,21.61,0,0,1,27.55-21.26,21.6,21.6,0,0,1,30.35-17c.13-.49.32-1,.49-1.43L176.15,0H0L115.9,172.54a22,22,0,0,1,8.21-3.17A21.49,21.49,0,0,1,127.08,150.1Z"/><polygon points="664.88 735.11 498.86 485.39 545.09 654.92 448.25 643.06 436.67 650.09 493.78 735.11 664.88 735.11"/><path d="M341.63,515.25l-1.41-22.09a23.28,23.28,0,0,1-25.28,0l-1.42,22.09a3.73,3.73,0,0,0,.82,2.73,17.73,17.73,0,0,0,26.47,0A3.64,3.64,0,0,0,341.63,515.25Z"/><path d="M347.16,517.51a17.74,17.74,0,0,0,26.19-3.85,3.64,3.64,0,0,0,.42-2.82l-4.62-21.65a23.26,23.26,0,0,1-25,3.68L346,514.94A3.65,3.65,0,0,0,347.16,517.51Z"/><path d="M379.57,512.28a17.76,17.76,0,0,0,25.36-7.62,3.64,3.64,0,0,0,0-2.86l-7.71-20.74A23.31,23.31,0,0,1,373,488.34l5,21.56A3.7,3.7,0,0,0,379.57,512.28Z"/><path d="M410.87,502.38a17.75,17.75,0,0,0,24-11.24,3.68,3.68,0,0,0-.42-2.81l-10.67-19.4a23.26,23.26,0,0,1-22.88,10.73l8.09,20.6A3.69,3.69,0,0,0,410.87,502.38Z"/><path d="M440.4,488a17.73,17.73,0,0,0,22.08-14.59,3.66,3.66,0,0,0-.82-2.73l-13.38-17.65A23.22,23.22,0,0,1,427.2,467l11,19.21A3.65,3.65,0,0,0,440.4,488Z"/><path d="M467.52,469.55a17.76,17.76,0,0,0,19.72-17.66A3.67,3.67,0,0,0,486,449.3l-15.79-15.49a23.29,23.29,0,0,1-18.83,16.85l13.69,17.4A3.71,3.71,0,0,0,467.52,469.55Z"/><path d="M491.67,447.31A17.72,17.72,0,0,0,508.59,427a3.61,3.61,0,0,0-1.57-2.38l-17.88-13A23.29,23.29,0,0,1,473,431L489,446.19A3.69,3.69,0,0,0,491.67,447.31Z"/><path d="M543.15,239.52l-21.47,5.39a23.25,23.25,0,0,1,4.58,24.85l22-2.61a3.72,3.72,0,0,0,2.53-1.29,17.76,17.76,0,0,0-4.79-26A3.72,3.72,0,0,0,543.15,239.52Z"/><path d="M533,208.72l-20.46,8.46a23.28,23.28,0,0,1,8.16,23.92l21.37-5.78a3.65,3.65,0,0,0,2.31-1.65,17.73,17.73,0,0,0-8.52-25A3.61,3.61,0,0,0,533,208.72Z"/><path d="M508.54,200.62A23.19,23.19,0,0,1,511,213.56l20.3-8.83a3.71,3.71,0,0,0,2.06-2,17.74,17.74,0,0,0-12.1-23.54,3.67,3.67,0,0,0-2.8.52l-19,11.35A23.25,23.25,0,0,1,508.54,200.62Z"/><path d="M493.09,175.27a23.28,23.28,0,0,1,4.31,12.44L516.2,176a3.65,3.65,0,0,0,1.75-2.24,17.75,17.75,0,0,0-15.4-21.54,3.75,3.75,0,0,0-2.7.92l-17.15,14A23.18,23.18,0,0,1,493.09,175.27Z"/><path d="M474.1,152.45a23.18,23.18,0,0,1,6.08,11.68l16.9-14.3a3.65,3.65,0,0,0,1.4-2.49,17.74,17.74,0,0,0-18.37-19.06,3.7,3.7,0,0,0-2.53,1.31l-14.93,16.34A23.13,23.13,0,0,1,474.1,152.45Z"/><path d="M452,132.63a23.14,23.14,0,0,1,7.72,10.67l14.63-16.61a3.68,3.68,0,0,0,1-2.66,17.74,17.74,0,0,0-20.95-16.18,3.63,3.63,0,0,0-2.32,1.66l-12.39,18.34A23.14,23.14,0,0,1,452,132.63Z"/><path d="M427.25,116.23a23.3,23.3,0,0,1,9.19,9.44l12.05-18.56a3.62,3.62,0,0,0,.63-2.78,17.74,17.74,0,0,0-23.07-13,3.67,3.67,0,0,0-2.06,2l-9.59,20A23.24,23.24,0,0,1,427.25,116.23Z"/><path d="M400.37,103.61a23.14,23.14,0,0,1,10.46,8l9.24-20.12a3.73,3.73,0,0,0,.21-2.85,17.75,17.75,0,0,0-24.72-9.46,3.69,3.69,0,0,0-1.75,2.25l-6.57,21.13A23.24,23.24,0,0,1,400.37,103.61Z"/><path d="M371.94,95.05a23.06,23.06,0,0,1,11.52,6.39l6.2-21.25a3.63,3.63,0,0,0-.2-2.84,17.76,17.76,0,0,0-25.84-5.78,3.68,3.68,0,0,0-1.39,2.49l-3.44,21.87A23.09,23.09,0,0,1,371.94,95.05Z"/><path d="M342.57,90.7a23.13,23.13,0,0,1,12.32,4.65l3-21.92a3.6,3.6,0,0,0-.6-2.78,17.76,17.76,0,0,0-26.41-2,3.68,3.68,0,0,0-1,2.67l-.22,22.13A23.2,23.2,0,0,1,342.57,90.7Z"/><path d="M312.88,90.68a23.19,23.19,0,0,1,12.87,2.81l-.18-22.14a3.74,3.74,0,0,0-1-2.67,17.76,17.76,0,0,0-26.41,1.93,3.64,3.64,0,0,0-.62,2.77l3,21.94A23.17,23.17,0,0,1,312.88,90.68Z"/><path d="M272,101.36a23.27,23.27,0,0,1,24.67-5.48L293.24,74a3.71,3.71,0,0,0-1.39-2.49A17.74,17.74,0,0,0,266,77.26a3.67,3.67,0,0,0-.2,2.84Z"/><path d="M235.38,91.36l9.2,20.14a23.27,23.27,0,0,1,23.61-9l-6.55-21.15a3.65,3.65,0,0,0-1.73-2.25,17.76,17.76,0,0,0-24.75,9.43A3.7,3.7,0,0,0,235.38,91.36Z"/><path d="M219,125.52a23.26,23.26,0,0,1,22-12.35l-9.56-20a3.68,3.68,0,0,0-2-2,17.75,17.75,0,0,0-23.1,12.93,3.66,3.66,0,0,0,.63,2.78Z"/><path d="M139.12,175.75l18.78,11.72a23.28,23.28,0,0,1,14.73-20.53l-17.14-14a3.6,3.6,0,0,0-2.69-.93,17.73,17.73,0,0,0-15.42,21.51A3.66,3.66,0,0,0,139.12,175.75Z"/><path d="M121.93,202.46a3.69,3.69,0,0,0,2,2l20.29,8.86a23.31,23.31,0,0,1,11.58-22.47l-19-11.37a3.64,3.64,0,0,0-2.8-.53,17.73,17.73,0,0,0-12.13,23.53Z"/><path d="M113.18,235l21.36,5.82a23.32,23.32,0,0,1,8.18-23.91l-20.44-8.5a3.69,3.69,0,0,0-2.84-.1,17.73,17.73,0,0,0-8.58,25A3.7,3.7,0,0,0,113.18,235Z"/><path d="M106.94,266.84l22,2.64a23.27,23.27,0,0,1,4.61-24.84l-21.47-5.43a3.62,3.62,0,0,0-2.83.31,17.74,17.74,0,0,0-4.83,26A3.73,3.73,0,0,0,106.94,266.84Z"/><path d="M130.72,413.31a18,18,0,0,0,11.95,8.23,3.71,3.71,0,0,0,2.76-.73l18.13-12.69c-.66-.32-1.28-.71-1.91-1.09h11.49A191.69,191.69,0,0,0,482,407h11.72a25,25,0,0,1-2.31,1.32l18.12,12.72a3.69,3.69,0,0,0,2.76.72,18,18,0,0,0,12-8.2,17.68,17.68,0,0,0,2.35-6.56h96.46V284H557.77a18,18,0,0,0-6.29-11.84,3.64,3.64,0,0,0-2.76-.71l-22,2.21A23.17,23.17,0,0,1,530.64,284H519c-5-101.42-88.78-182.14-191.46-182.14a190.75,190.75,0,0,0-96.8,26.25,188.89,188.89,0,0,0-32.33,9.56,23.06,23.06,0,0,1,17.22-10L203.3,109.32a3.72,3.72,0,0,0-2.31-1.66,17.76,17.76,0,0,0-21,16.16,3.68,3.68,0,0,0,1,2.66L192.9,140c-1.29.57-2.57,1.16-3.83,1.75l-11.26-12.36a3.65,3.65,0,0,0-2.54-1.3,17.73,17.73,0,0,0-18.39,19,3.66,3.66,0,0,0,1.4,2.48l16.34,13.87,3.17,8.51a4.16,4.16,0,0,0,.72,1.11,190.75,190.75,0,0,0-42.39,111H124.5a23.27,23.27,0,0,1,4-10.63l-22-2.24a3.69,3.69,0,0,0-2.75.71A18.1,18.1,0,0,0,97.35,284H30.29V407h98.13A17.43,17.43,0,0,0,130.72,413.31ZM154.85,386c-2.18-5.63-2.68-12.92-2.68-18.67V347.23c0-3.66-2.47-5.71-4.85-5.71h-1.61v-8.94l16.18,0h7v29.57c0,13.56,0,21,7.36,21,3.12,0,7-1.86,7-3.81V347.08c0-3.21-2.58-5.34-4.51-5.34h-2.65v-9.16l17.07,0h6.64v45.63c0,4.11,2.22,6.17,4.39,6.17h3.05v9.9H184.36v-4.64c-4.66,3.9-6.9,4.8-15.39,4.8C162.39,394.49,157.12,392,154.85,386Zm176.6-172.7a28.33,28.33,0,0,1,12.84-3.07c11,0,18.29,8.65,16.89,20.38,8.81,0,21.23-12.7,25.27-18.29h17.6c-3.91,7.68-4.14,24.06-8,38.81C393,263,384.64,272.39,373.33,272.39a18.81,18.81,0,0,1-17.73-12.14l9.35-10.2c.14,1.4,3.35,6.28,6.84,6.28,5.73,0,11.59-14.79,11.17-24.15-4.32,5.59-15.36,12-26.25,13.41-7,15.91-21.64,26.52-33.64,26.52-8.8,0-18.58-5.3-18.58-15.5-4.75,7.26-16.05,15.22-24.15,15.22-11.17,0-12.71-7.68-13.27-10.61s-1.25-1-1.81-.28c-4,5-14.67,11.59-24,11.59-5.17,0-15.5-2.66-15.5-18.29,0-20.38,22.9-44,39.93-44,4.9,0,9.35,1.53,11.88,4.75,1.64,2.11,2.09.27,2.51-.7l.84-2.24h18.43l-13.41,34.76c-1,3.35-1.81,6.7,2.1,6.7,6.42,0,16.89-16.75,24.29-36.43L334,159.32h18.16ZM466.61,181l-5.31,15.35H445.81c-5.18,12.84-20.26,49.28-20.26,55.84,0,3.07,1.12,4.18,2.52,4.18,4.61,0,10.75-8.79,14.8-14.23l12,5.58c-8.1,15.21-20.94,24.71-31.83,24.71-8.51,0-16.06-5.31-16.06-17.45a35,35,0,0,1,4.19-15.35l-7.4,4.46-2.37-12.28c11.45-6.42,25.13-26.24,25.13-34.9l-42.31.42L390,182.07h42.31l7.12-17.31h17.73L451.53,181ZM395.89,335.65c3.93-3,7.3-4.71,13-4.71,10.32,0,18.08,3.86,18.08,15.79v24c0,18.76-5,23.59-16.25,23.59-4.61,0-8.94-.71-13.22-4.82l-1.86,3.68H375.69v-10h1.75c2.08,0,2.73-3.66,2.73-7.75v-66c0-2.94-2.14-5.55-4.36-5.55h-3.9v-9.38l18.49,0h5.49Zm35-31.71H427v-9.38l18.5,0H451v41.06c3.93-3,7.3-4.71,13-4.71,10.33,0,18.08,3.86,18.08,15.79v24c0,18.76-5,23.59-16.25,23.59-4.6,0-8.94-.71-13.21-4.82l-1.86,3.68H430.76v-10h1.74c2.09,0,2.74-3.66,2.74-7.75v-66C435.24,306.55,433.09,303.94,430.87,303.94Zm-154.45,0h-2.34v-9.32h34.31c12.18,0,24.08,8.08,24.08,23.92,0,12.05-4.14,17-13.77,21.53,8.59,3.25,13.45,6.18,13.45,18.65,0,6.24.35,6.51.35,15.36,0,5.95.46,9.13,4.75,9.13v10H322.37c-5.38,0-8.12-5.27-8.12-8.85V360.18c0-12.81-3.89-14.11-9.55-13.67H299v32c0,2.63,3.32,4.71,5.53,4.71l3-.07v10H274.08v-10l1.88.07c2.56,0,5.26-2.95,5.26-4.71V309.71C281.22,306.42,278.64,303.91,276.42,303.91Zm91.74,79.26h2.49v10H343.14v-10h1.71c2,0,3-3,3-5.21V345.9c0-1.61-.84-4.16-2.93-4.16l-3.13,0,0-9.1h21.91v44.17C363.64,379.7,365.89,383.17,368.16,383.17Zm-15.62-60.23c-6.19,0-11.37-5-11.37-12,0-7.24,4.67-12.25,11.62-12.25a11.41,11.41,0,0,1,11.63,11.59C364.42,317.81,359.24,322.94,352.54,322.94Zm-97.79,31.15V365.2H225c0,10.7-.52,18.35,7.11,18.35,5.79,0,7.47-3.56,7.47-8.39l0-3.76h15.31v7.48c0,8.87-4.26,15.75-23.7,15.75-21.15,0-22.92-11.86-22.92-31.33v-8.19c0-18.7,7.88-24.18,23.6-24.18C245.36,330.93,254.75,335.82,254.75,354.09Zm3.86,84.68H243.8v-3.3h3.87v-18.4H243.8v-3.3h14.55c9.21,0,11.32,3.08,11.32,6,0,2.51-1.93,5-7.62,5.74v.26c5.94.57,8.66,2.74,8.66,6.05C270.71,435.66,267.74,438.77,258.61,438.77Zm32.36-3.3v3.3h-14.9v-3.3H280v-18.4h-3.88v-3.3h15.55c8.56,0,11.45,3.19,11.45,6.34s-2.11,5.48-8.78,6.16v.27c5.42.41,7.19,2.54,7.31,5.51l.13,1.48c.09,1.63.48,2,1.34,2,.6,0,1.12-.53,1.72-2.24l2.54.72c-.82,3-2.54,5.28-6.41,5.28-4.44,0-6.42-2.05-6.42-6.23l0-1.29c0-2.77-.78-3.91-4-3.91H287v7.6Zm49.8,3.3H325.92v-3.3h3.83l-1.81-4.68h-9.69l-1.81,4.68H320v3.3h-10.9v-3.3h3.1l9.13-21.85h7.06l9,21.85h3.36Zm36.28-21.7h-3.7v22h-7.06L353,419.73h-.39v15.74h3.88v3.3H345.06v-3.3h3.7v-18.4h-3.7v-3.3h12.06l12,17.48h.39V417.07h-3.88v-3.3h11.41Zm17.77,21.7h-13v-3.3h3.87v-18.4h-3.87v-3.3h12.7c11.5,0,16.92,4.94,16.92,12.35S406.23,438.77,394.82,438.77Zm94-63.92V349c0-10.8,5.74-18.17,23.54-18.17,19,0,24.72,8.54,24.72,18.17v25.89c0,11.28-5.27,20.51-24.13,20.51S488.8,386.13,488.8,374.85Zm73.78-39.26a1.5,1.5,0,0,0,2.22.73c2.9-3,7.14-4.54,12.15-4.54,16.57,0,18.2,11.35,18.2,16.75V381c0,2.5,3.44,3.24,6.86,3.24h1.53V394H588.83c-7.1,0-11.74-6.87-11.74-11.39V351.09c0-4,.36-7.23-7.5-7.23a6.31,6.31,0,0,0-6.41,6.44v29.41c0,1.74,2.88,4.56,5,4.56h1.74v8.88H541.25l-.15-8.88H543c1.16,0,3.14-2.23,3.14-4.56v-31c0-3.79-2.65-5.92-4.74-5.92h-1.15V332.58l15.91,0h5.49ZM175.61,154c21.37-14.37,56-23.73,73-23.73,25.42,0,41.33,13,41.33,32.38,0,24.71-22.9,48.59-57,48.59a97.35,97.35,0,0,1-12.15-1l-23.17,60.17h-19l41.76-108.75a3.86,3.86,0,0,1,4.05-3.07h16l-12.85,33.5a22.08,22.08,0,0,0,5.17.42c14.94,0,37.29-10.6,37.29-27.78,0-8.79-7.82-16.75-20.53-16.75-20.11,0-48.45,10.61-67.87,22.48ZM46.93,393.77v-10l3,.07a6.43,6.43,0,0,0,6-5.88V310.4c0-2.93-2.67-5.88-5.25-5.88H46.78l.07-9.32H82.41c14.92,0,24.92,10,24.92,24.34,0,11.11-4.2,17.27-13,20.59-.57.19-.76.87,0,1.08,11.35,3.16,14.35,11.94,14.35,25.73,0,18.66-9.92,26.84-25.54,26.84Zm69.38-10.58,2.67,0c3.44,0,4.06-4.35,4.06-6.81v-65.7c-.05-3.36-2-4.58-4.66-6.31l-3.22-1.73v-8.06l18.86,0h6.92v82.34c0,2.91.6,6.24,3.71,6.24l2.8,0v10H116.31Z"/><path d="M165.89,446l16.1-15.2a23.3,23.3,0,0,1-16.14-19.45l-17.91,13a3.7,3.7,0,0,0-1.58,2.38,17.75,17.75,0,0,0,16.91,20.36A3.66,3.66,0,0,0,165.89,446Z"/><path d="M167.69,451.67a17.71,17.71,0,0,0,19.7,17.68,3.73,3.73,0,0,0,2.43-1.47l13.7-17.39a23.29,23.29,0,0,1-18.8-16.88L168.9,449.09A3.7,3.7,0,0,0,167.69,451.67Z"/><path d="M192.42,473.26a17.75,17.75,0,0,0,22.06,14.62,3.68,3.68,0,0,0,2.19-1.82l11-19.19a23.23,23.23,0,0,1-21-14l-13.4,17.62A3.66,3.66,0,0,0,192.42,473.26Z"/><path d="M220,491A17.75,17.75,0,0,0,244,502.27a3.67,3.67,0,0,0,1.91-2.12L254,479.56a23.26,23.26,0,0,1-22.87-10.76l-10.69,19.38A3.69,3.69,0,0,0,220,491Z"/><path d="M249.93,504.56a17.75,17.75,0,0,0,25.34,7.66,3.73,3.73,0,0,0,1.58-2.39l5-21.54A23.33,23.33,0,0,1,257.69,481l-7.75,20.73A3.73,3.73,0,0,0,249.93,504.56Z"/><path d="M281.49,513.61a17.75,17.75,0,0,0,26.18,3.89,3.61,3.61,0,0,0,1.21-2.59l1.85-22a23.29,23.29,0,0,1-25-3.71l-4.65,21.63A3.7,3.7,0,0,0,281.49,513.61Z"/><path d="M257.57,427.37h-2.88v8.1h3c4.43,0,5.85-1.11,5.85-4.18C263.51,428.89,262,427.37,257.57,427.37Z"/><path d="M262.61,420.38c0-2.24-1-3.31-4.95-3.31h-3v7.11h2.88C261.41,424.18,262.61,422.74,262.61,420.38Z"/><path d="M394.9,417h-2.15v18.54h2.45c6.25,0,8.62-2.39,8.62-9.38C403.82,419.54,401.32,417,394.9,417Z"/><polygon points="323.07 418.44 319.41 427.79 326.82 427.79 323.25 418.44 323.07 418.44"/><path d="M295.53,420.76c0-2.58-1-3.84-4.69-3.84H287v7.87h3.74C294.07,424.79,295.53,423.65,295.53,420.76Z"/><path d="M319.38,249.4c0,3.72,1.5,5.94,4.29,5.94,8.89,0,19.16-16.17,19.16-26.27,0-3.72-1.89-5.54-4.69-5.54C330.18,223.53,319.38,240.7,319.38,249.4Z"/><path d="M272.38,230.23c0-4.75-2.79-4.75-4.75-4.75-6,0-23.18,17-23.18,25.69,0,2.79,2.09,3.91,4.88,3.91C258.14,255.08,272.38,238.05,272.38,230.23Z"/><path d="M88.42,323.22v-7.31c0-11.85-4.52-9.71-14.1-9.71v30.11H77.6C87.92,336.31,88.42,333.5,88.42,323.22Z"/><path d="M512.93,383.18c5.92,0,7.48-3.48,7.48-10.81V351.3c0-5.53-.79-9.57-7.42-9.57h-.11c-6.63,0-7.42,4-7.42,9.57v21.07C505.46,379.7,507,383.18,512.93,383.18Z"/><path d="M89.7,357.29c0-7.5-2.62-11.07-8.63-11.69v.06c-1.8,0-4.19,0-6.75,0v37.64h6c7.17,0,9.39-3.28,9.39-12.36Z"/><path d="M225.07,352.36v4.39h13.05V353c0-9.52-1.28-11.22-6.3-11.22C226.32,341.73,225.07,342.84,225.07,352.36Z"/><path d="M465.18,375.27c0-6.69,0-14.37,0-24,0-13.43-14.14-8.9-14.14-2.11v27.62C451.05,383.21,465.18,385.7,465.18,375.27Z"/><path d="M410.12,375.27c0-6.69,0-14.37,0-24,0-13.43-14.14-8.9-14.14-2.11v27.62C396,383.21,410.12,385.7,410.12,375.27Z"/><path d="M313.5,321.32V316.2c0-10.66-7.11-12.36-12.05-12.36H299v30.59h3.58C311.62,334.43,313.5,332.6,313.5,321.32Z"/><path d="M568.72,428a12.95,12.95,0,1,0,13-12.94A13,13,0,0,0,568.72,428Zm23.41,0a10.47,10.47,0,1,1-10.44-10.51A10.45,10.45,0,0,1,592.13,428Z"/><path d="M575.74,420.81v.94h.59c.52,0,.93,0,.93.62v10.36c0,1-.41.91-1.33.91h-.26v.87h6.1v-.87H581c-.66,0-.7-.51-.7-1.05v-3.47h.48a1.52,1.52,0,0,1,1.41.47,10.53,10.53,0,0,1,1.29,2c.33.73.92,2.25,1.59,2.69a2.57,2.57,0,0,0,1.44.25h2.19v-.87c-1.82,0-2.09-5.58-4.6-5.76l.18-.08a3.3,3.3,0,0,0,2.79-3.48,3.44,3.44,0,0,0-1.64-3,8.72,8.72,0,0,0-4-.54Zm8.32,4c0,1.76-1.07,1.88-3,1.88a1.91,1.91,0,0,1-.77-.14v-2.85l.18-.39,1,0C582.93,423.23,584.06,423.41,584.06,424.77Z"/><path d="M310.18,527.82a21.85,21.85,0,0,1-18.53,6.06,21.55,21.55,0,0,1-15.92-11,21.93,21.93,0,0,1-19.21,3.34A21.4,21.4,0,0,1,242.41,513a22,22,0,0,1-19.51.56,21.24,21.24,0,0,1-12-15,21.94,21.94,0,0,1-19.37-2.23,21.06,21.06,0,0,1-9.65-16.6,22,22,0,0,1-4.27.45L132.13,644.62l87.15-10.54,65.65,47.14,39.53-144.84,0-.19A21.62,21.62,0,0,1,310.18,527.82Z"/><path d="M481.8,479.58a17.57,17.57,0,0,1-8.54.12,21,21,0,0,1-9.67,16.61,21.92,21.92,0,0,1-19.35,2.2,21.2,21.2,0,0,1-12,15.06,22,22,0,0,1-19.48-.57,21.36,21.36,0,0,1-14.13,13.16,21.9,21.9,0,0,1-19.19-3.35,21.5,21.5,0,0,1-15.94,11,21.85,21.85,0,0,1-18.48-6c-1.68,2.23-1.83,2.65-4.25,4.09l-5.42,19.53,34.31,122.36L444.06,628,525,638Z"/></svg>