<svg xmlns="http://www.w3.org/2000/svg" viewBox="0 0 406.2 135.41"><path d="M387.83,131.54l2.5-3a11,11,0,0,0,7.5,3.09c2.58,0,4.21-1.19,4.21-3v-.07c0-1.7-1-2.61-5.36-3.63-5.05-1.23-7.9-2.72-7.9-7.1v-.07c0-4.08,3.41-6.9,8.11-6.9a13.09,13.09,0,0,1,8.59,3L403.24,117a10.73,10.73,0,0,0-6.43-2.44c-2.45,0-3.85,1.26-3.85,2.82v.07c0,1.83,1.07,2.64,5.62,3.73,5,1.22,7.62,3,7.62,7v.06c0,4.45-3.48,7.1-8.48,7.1a14.65,14.65,0,0,1-9.89-3.8ZM375.17,123c3,0,4.89-1.56,4.89-4V119c0-2.55-1.82-4-4.91-4h-6v8Zm-10.24-11.78h10.55a9.55,9.55,0,0,1,6.86,2.38,7.17,7.17,0,0,1,2,5.12v.06c0,3.91-2.33,6.26-5.65,7.21l6.39,9h-4.91l-5.82-8.29H369.1V135h-4.17Zm-22.73,0h17.61V115H346.38v6.18h11.89v3.74H346.38v6.38H360V135H342.2Zm-14.77,3.87H319.9v-3.87h19.26v3.87h-7.52V135h-4.21Zm-31.25-3.87H300l12.7,16.43V111.23h4.11V135h-3.48l-13.1-16.91V135h-4.09ZM285.67,135h4.16V111.23h-4.16Zm-38.55-23.77h4.51l5.66,17.62,5.82-17.69h3.54l5.82,17.69,5.65-17.62h4.38l-8.28,23.94h-3.58l-5.83-17.08L259,135.17h-3.6Zm-18,11.78c3,0,4.87-1.56,4.87-4V119c0-2.55-1.84-4-4.92-4H223v8ZM218.8,111.23h10.57a9.55,9.55,0,0,1,6.86,2.38,7.21,7.21,0,0,1,2,5.12v.06c0,3.91-2.35,6.26-5.65,7.21l6.4,9H234l-5.81-8.29H223V135H218.8Zm-26,13.68V111.23h4.15v13.51c0,4.42,2.28,6.8,6,6.8s5.95-2.24,5.95-6.63V111.23h4.18v13.48c0,7.1-4,10.67-10.21,10.67s-10.08-3.57-10.08-10.47Zm-7.71-1.73v-.07a8.14,8.14,0,0,0-8.06-8.46c-4.72,0-8,3.77-8,8.39v.07a8.14,8.14,0,0,0,8.06,8.46c4.71,0,8-3.77,8-8.39Zm-20.44,0v-.07a12.17,12.17,0,0,1,12.44-12.29A12,12,0,0,1,189.44,123v.07a12.41,12.41,0,0,1-24.81.07Zm-19.86-8.08h-7.52v-3.87h19.24v3.87H149V135h-4.2Zm-31.22,8.08v-.07a12,12,0,0,1,12.24-12.29,12.3,12.3,0,0,1,9.28,3.7l-2.67,3.09a9.48,9.48,0,0,0-6.65-3c-4.53,0-7.82,3.74-7.82,8.39v.07c0,4.65,3.29,8.46,7.82,8.46,2.92,0,4.78-1.19,6.81-3.09l2.68,2.71a12.19,12.19,0,0,1-9.62,4.22,12,12,0,0,1-12.07-12.23Zm-20.3-12h17.6V115H97.42v6.18h11.89v3.74H97.42v6.38H111V135H93.25ZM77.12,115.1H69.59v-3.87H88.85v3.87H81.32V135h-4.2Zm-11.26,8.08v-.07a8.15,8.15,0,0,0-8.06-8.46c-4.73,0-8,3.77-8,8.39v.07a8.14,8.14,0,0,0,8.06,8.46c4.71,0,8-3.77,8-8.39Zm-20.44,0v-.07a12.16,12.16,0,0,1,12.43-12.29A12,12,0,0,1,70.22,123v.07a12.4,12.4,0,0,1-24.8.07ZM32.91,123c3,0,4.88-1.56,4.88-4V119c0-2.55-1.82-4-4.92-4h-6v8ZM22.65,111.23H33.21a9.51,9.51,0,0,1,6.85,2.38,7.13,7.13,0,0,1,2,5.12v.06c0,3.91-2.33,6.26-5.66,7.21l6.41,9H37.85L32,126.71H26.82V135H22.65ZM9,123.59c3.16,0,5.12-1.77,5.12-4.24v-.07c0-2.79-2-4.26-5.12-4.26H4.17v8.57ZM0,111.23H9.36c5.51,0,9,3.15,9,7.94v.07c0,5.33-4.26,8.12-9.48,8.12H4.17V135H0ZM148,50c0,13.8-9.68,25.55-24.27,25.55-14.44,0-24.39-12-24.39-25.82v-.28c0-13.8,9.68-25.55,24.12-25.55S148,35.93,148,49.74ZM54.21,37c0,7.51-5.73,12.43-15.13,12.43H26.54V24.18h12.4c9.54,0,15.27,4.38,15.27,12.57ZM281.27,1.91,264.64,57.25,246.24,1.64H223.49L205.08,57.25,188.45,1.91H160.51l7.24,21.86C159,9.5,143,0,123.71,0,104,0,87.64,10,79,24.84,74.47,10.3,60.66,1.91,41,1.91H.1V97.56H26.54V70.23H39.62c14.13,0,25.95-4.26,33.23-12.44,3.7,23.71,24,41.68,50.59,41.68C152.89,99.47,175,77.2,175,49.74v-.28c0-1.55-.09-3.08-.23-4.6L192.4,98.24h23l19.08-55.07,19.22,55.07h23L308.67,1.91ZM400.13,68.8a1.61,1.61,0,0,0-.78-1l-11.76-6.34,10.33-4.06a1.3,1.3,0,0,0,.51-1.72l-1.5-2.81a1.27,1.27,0,0,0-1.11-.66,1.24,1.24,0,0,0-.6.15L383,58.94,366.44,50,383,41.12l12.25,6.61a1.36,1.36,0,0,0,.6.14,1.22,1.22,0,0,0,1.1-.67l1.51-2.8a1.28,1.28,0,0,0-.56-1.74l-10.27-4,11.73-6.32a1.69,1.69,0,0,0,.8-1A1.6,1.6,0,0,0,400,30l-1.59-2.75a1.66,1.66,0,0,0-1.45-.85,1.69,1.69,0,0,0-.85.23l-11.37,7,1.67-11a1.26,1.26,0,0,0-1.22-1.31L382,21.22a1.31,1.31,0,0,0-1.28,1.23l-.44,13.93-16,9.87.55-18.81,11.82-7.36a1.25,1.25,0,0,0,.4-1.73l-1.66-2.72a1.29,1.29,0,0,0-1.08-.59,1.25,1.25,0,0,0-.7.22L365,22.16l.39-13.36a1.7,1.7,0,0,0-1.68-1.71h-3.18a1.68,1.68,0,0,0-1.67,1.69l.39,13.38-8.67-6.93a1.32,1.32,0,0,0-.66-.19,1.27,1.27,0,0,0-1.09.6l-1.66,2.7a1.28,1.28,0,0,0,.4,1.75l11.83,7.34.53,18.82-16-9.87-.44-13.94a1.31,1.31,0,0,0-1.32-1.22l-3.16.11a1.29,1.29,0,0,0-1.23,1.36l1.67,10.93-11.35-7a1.66,1.66,0,0,0-2.31.61L324.17,30a1.69,1.69,0,0,0,.61,2.31l11.77,6.33-10.34,4.07a1.27,1.27,0,0,0-.5,1.71l1.5,2.8a1.24,1.24,0,0,0,1.12.67,1.39,1.39,0,0,0,.6-.14l12.24-6.61L357.7,50l-16.53,8.91-12.24-6.6a1.25,1.25,0,0,0-.61-.15,1.24,1.24,0,0,0-1.11.67l-1.5,2.8a1.29,1.29,0,0,0,.55,1.74l10.28,4L324.8,67.76a1.71,1.71,0,0,0-.8,1,1.57,1.57,0,0,0,.17,1.28l1.58,2.75a1.66,1.66,0,0,0,1.46.85,1.72,1.72,0,0,0,.83-.22l11.37-7-1.67,11A1.29,1.29,0,0,0,339,78.74l3.17.1h0a1.27,1.27,0,0,0,1.27-1.23l.45-13.93,16-9.87-.53,18.82L347.53,80a1.33,1.33,0,0,0-.57.79,1.21,1.21,0,0,0,.16,1l1.67,2.7a1.28,1.28,0,0,0,1.08.6,1.36,1.36,0,0,0,.71-.22l8.61-6.9-.38,13.35A1.68,1.68,0,0,0,360.48,93h3.18a1.69,1.69,0,0,0,1.68-1.68L365,77.89l8.66,6.94a1.3,1.3,0,0,0,.67.19,1.28,1.28,0,0,0,1.08-.6l1.66-2.7a1.25,1.25,0,0,0,.16-1,1.36,1.36,0,0,0-.56-.79L364.8,72.62l-.55-18.81,16,9.87.44,13.93A1.29,1.29,0,0,0,382,78.84h0l3.17-.1a1.28,1.28,0,0,0,1.22-1.37l-1.67-10.93,11.36,7a1.66,1.66,0,0,0,2.31-.61L400,70.08a1.6,1.6,0,0,0,.15-1.28Zm6.05,27.52a1.75,1.75,0,0,1-1.75,1.74H319.71A1.75,1.75,0,0,1,318,96.32V3.74A1.74,1.74,0,0,1,319.71,2h84.72a1.74,1.74,0,0,1,1.75,1.74Z" fill-rule="evenodd"/></svg>