<svg xmlns="http://www.w3.org/2000/svg" viewBox="0 0 596.43 212.95"><path d="M587.08,163.61v-1.9h1.28c.65,0,1.34.11,1.34.91s-.77,1-1.61,1Zm1.89.77a1.63,1.63,0,0,0,1.65-1.61v-.09c0-1.21-.74-1.8-2.1-1.8h-2.36V167h.92v-2.58h1l1.69,2.58h.94Z"/><path d="M588.25,168.33a4.42,4.42,0,1,1,4.31-4.53v.11a4.36,4.36,0,0,1-4.29,4.42h0m0-9.66a5.26,5.26,0,1,0,5.25,5.26v0a5.22,5.22,0,0,0-5.23-5.24h0"/><path d="M567.24,162.61,214.63,185.89a2.65,2.65,0,0,0-2.7,1.93c-.14.36-.46,1.19-.68,1.79-.41,1.14-.85,2.89,1.26,4.14s9.06,5.07,16.18,8.73a33.78,33.78,0,0,0,21.43,3.33l317.35-37.56a3.1,3.1,0,0,0,2.37-1.84,2.67,2.67,0,0,0-1.25-3.55,2.71,2.71,0,0,0-1.35-.25"/><path d="M227.73,100.09c3.41,3.24-.27,12-2.37,16.2-1.46,2.93-2.7,5.22-6.31,12.11-13.56,25.86-21.71,30.22-26.16,28.22s-5.49-11.59,9.92-37.14c11.34-18.81,21.52-22.64,24.92-19.39M463.46,111.4a.28.28,0,0,1-.31-.22.32.32,0,0,1,0-.14,75.92,75.92,0,0,1,11.18-19.93c4.83-6.39,9.19-9.9,12.6-10.13h.37c1.38,0,3.2.47,3.2,4.53,0,4.89-2.58,10.19-7.89,16.18-4.79,5.24-11.22,8.51-19.16,9.72m132.79-6.75a2.22,2.22,0,0,0-1.09-1.28,2.38,2.38,0,0,0-3.12,1,107.61,107.61,0,0,1-12.77,18.09c-5.2,6.23-9.86,9.52-13.84,9.79h-.61c-2,0-4.34-.63-4.34-5.52,0-7.15,3.42-17.18,10.15-29.81a285.74,285.74,0,0,1,14.74-25.49,3.29,3.29,0,0,0,.22-3.42,3,3,0,0,0-2.76-1.64,3.53,3.53,0,0,0-.72.08c-5,1.08-15,2.21-26,3-3,.2-5.46.37-7.26.4a.17.17,0,0,1-.18-.16.24.24,0,0,1,0-.08l2.85-7.76,2.08-5.3a3.33,3.33,0,0,0-.31-3.16A3.24,3.24,0,0,0,550.64,52a3.37,3.37,0,0,0-1,.15c-2,.6-4.67,1.27-8.07,2.07-3.21.77-7.83,1.51-10.88,2l-2.23.36a3.64,3.64,0,0,0-2.58,1.86,3.37,3.37,0,0,0-.15,3,22.89,22.89,0,0,1,1.32,8.76c0,9-2.9,18.2-6.3,26.44-4.34,10.49-10.42,20.78-18.56,28.77-7.9,7.76-17.72,13.62-29,14.37-.59,0-1.17.06-1.73.06-8,0-11.85-4-11.85-12.3a47,47,0,0,1,.82-7.38.37.37,0,0,1,.42-.31h0a24.47,24.47,0,0,0,5.33.53q1.26,0,2.61-.09c10.18-.68,24.63-4.93,32.54-11.73,8.38-7.23,12.46-15.07,12.46-24S506,70.37,492.91,70.37c-1.08,0-2.18,0-3.29.11a59.36,59.36,0,0,0-42.47,21.69c-7.17,8.93-13.31,19.19-15.3,30.61a66.41,66.41,0,0,0-.61,10.36,2.62,2.62,0,0,1-.16,1,2.54,2.54,0,0,1-.5.68c-3.33,3.53-7.8,7.16-12.86,7.49H417a3.19,3.19,0,0,1-3.07-3.24,17.44,17.44,0,0,1,1.64-6.34l21.53-52a3.3,3.3,0,0,0-.28-3.16,3.2,3.2,0,0,0-2.67-1.43,3.41,3.41,0,0,0-.95.14c-2.21.62-5.16,1.34-9,2.18-4.43,1-11.64,2-16,2.53l-.83.11A3.73,3.73,0,0,0,404.69,83a3.28,3.28,0,0,0-.14,3,7,7,0,0,1,.58,3,18.3,18.3,0,0,1-1.64,6.82L402.2,99l-3.08,7.54c-2.09,5.12-4.25,10.35-6.34,15.52a156,156,0,0,0-5.94,15.77c-.16.57-.32,1.14-.46,1.72a2.31,2.31,0,0,1-1,1.62,16,16,0,0,1-8.63,3.87h-.49c-2.39,0-3.51-1.24-3.51-3.91,0-3.37,3.2-11.14,9.5-23.11,6.54-12.37,9.73-20.81,9.73-25.82,0-8.56-9.8-13.86-18.86-13.86h-1.6c-11.36.75-23.25,7.73-31.46,18.34l4-9.59a3.33,3.33,0,0,0-.29-3.15,3.32,3.32,0,0,0-3.64-1.29c-3,.82-6.8,1.69-10.13,2.44-2.53.57-6.46,1.14-9.34,1.56-1.1.16-2.07.3-2.8.42a3.66,3.66,0,0,0-2.67,2,3.25,3.25,0,0,0-.05,3,6.62,6.62,0,0,1,.62,3.06,19.94,19.94,0,0,1-1.65,6.84l-8.49,20.47c-1.77,3.52-3.07,7.37-4.57,11s-3,7.31-4.53,11a13,13,0,0,1-1.15,2.34,10,10,0,0,1-3.82,2.85c-1.87,1-4.2,2-6.37,1.62a3.25,3.25,0,0,1-1.92-1.07,3.85,3.85,0,0,1-.61-2.93c.47-3.55,2-6.86,3.48-10.1.26-.61.53-1.21.78-1.81l2.94-7.09L297,110.89q3.17-7.67,6.34-15.32c.82-1.94,1.62-3.88,2.42-5.83a3.34,3.34,0,0,0-.27-3.17,3.23,3.23,0,0,0-2.68-1.43,3.41,3.41,0,0,0-.95.14c-2.19.62-5.14,1.34-9,2.19-4.41,1-11.62,2-15.92,2.53l-.86.12A3.64,3.64,0,0,0,273.4,92a3.28,3.28,0,0,0-.14,3,7.19,7.19,0,0,1,.57,3,19.42,19.42,0,0,1-1.87,7.36l-5,12.23c-3.63,9.4-7.89,18.56-11.07,28.15a7.67,7.67,0,0,1-.93,2.11,7.42,7.42,0,0,1-1.15,1.16,25.58,25.58,0,0,1-5.58,3.88c-2,.94-5.7,2.26-7.54.39-.91-.94-.86-2.44-.63-3.73.7-3.81,2.48-7.33,4-10.89l2.75-6.65q3.45-8.3,6.88-16.59L260.08,100l3-7.68v-.06a3.32,3.32,0,0,0-.26-3.16,3.26,3.26,0,0,0-2.67-1.44,3.46,3.46,0,0,0-.78.09,175.87,175.87,0,0,1-19.13,2.34,3.54,3.54,0,0,0-3.14,2.69c-.33,1.38-.83,3.23-1.52,5.64,0,0-.92,3.86-.94,4s-.14.19-.15,0c-.18-9.2-4.51-13.92-12.63-13.92a12.46,12.46,0,0,0-1.49.06c-14.06.74-33.2,10.26-47.26,34-8,15-11.18,25.72-11.18,33.69,0,11.31,6.68,16.81,20.42,16.81,1.27,0,2.6,0,4-.14,9.59-.65,18.27-6.64,25.84-17.85.07-.11.19,0,.18.09-.05.55-.07,1.09-.07,1.62,0,8.69,5.33,13.29,15.41,13.29q1.2,0,2.49-.09c8.3-.55,17.63-4.46,24.79-10.21a.33.33,0,0,1,.46,0l.05.07c2,3.94,6.69,7.17,16.74,7.17a34.63,34.63,0,0,0,3.61-.13,33.88,33.88,0,0,0,14.31-4.37.18.18,0,0,1,.26.05s0,0,0,0a3.15,3.15,0,0,0,2.63,1.37h.2l19.7-1.37a5.22,5.22,0,0,0,4.42-3.2l19-45.36c8.39-14,16.19-21.72,22.51-22.14h.49c2.39,0,3.51,1.24,3.51,3.92,0,3.17-3.21,11-9.5,23.11-6.47,12.91-9.48,21.73-9.48,27.8,0,5.31,2.44,14.21,18.74,14.21q1.59,0,3.33-.12c7.25-.48,14.13-3.44,20.89-8.93a.32.32,0,0,1,.44,0l0,0c2.25,3.5,7,6.24,16.21,6.24a34.54,34.54,0,0,0,3.6-.13c8.84-.59,17.36-4.85,25.29-12.65l1.63-1.6c.36-.35.59-.2.84.17,1.11,1.62,5.26,4.92,5.84,5.33a28.62,28.62,0,0,0,10.69,4.42c11.22,2.45,23.05.74,33.54-3.75a73.21,73.21,0,0,0,23.45-16.51,96.56,96.56,0,0,0,7-8,231.63,231.63,0,0,0,19.22-29.82c3-5.3,5.81-10.67,8.28-16.21h2.93c1.28,0,2.44,0,3.48-.09,2.51-.16,5.09-.46,7.72-.87a.11.11,0,0,1,.14.07.11.11,0,0,1,0,.11C542.48,101.25,535,118.9,535,131.16c0,10.9,6.18,17.15,17,17.15a19.58,19.58,0,0,0,2-.07c14.48-1,27.87-14.21,42.13-41.69a2.53,2.53,0,0,0,.18-1.89"/><path d="M117.09,101.77l-1.55-.38a1.87,1.87,0,0,1-1.54-3c7.93-19.84,19.59-38.53,35.87-52.38a1.8,1.8,0,0,1,1.33-.58A1.72,1.72,0,0,1,152,46a51.36,51.36,0,0,1,3.62,4.56,26.37,26.37,0,0,1,4.26,8.61,32.69,32.69,0,0,1-.56,20.23,35.68,35.68,0,0,1-19.64,20.37,37.73,37.73,0,0,1-22.63,2m66.68,87.1c-7.79,4.57-16.53,5-23.5-1-17.06-14.82-26.51-54.23-29.35-63.63-1-3.38-.59-4.67,2.11-6.08a406.07,406.07,0,0,0,39.25-23.83c6.26-4.24,12.34-9.21,15.92-15.88,4.25-7.88,4.59-17.38,2.89-26.17-2.72-14.05-10-27.24-21.55-35.54C132.94-9.52,88.35-2.49,52.29,21.28,46.41,25.15,36.18,31.9,31,35.44c-64.47,44.48-17.88,110.42,43.22,67,2.17-1.53,4.82-3.34,7.59-5.25,1.45-1,1.33-2,.33-3.92-1.26-2.47-2.3-2.54-3.66-1.8C30.21,117.71,5.58,67.94,43.68,41.51c5-3.47,15.12-9.34,23.69-12,14.59-4.47,26.43-5,36.92-5,19.59-.1,31.2,5.21,34.9,7.6.38.25.18.49-.17.71C112.36,49.71,100.47,64,85.41,94.91c-.7,1.43-7.67,16-8.66,18.15S67.94,133,65.76,138c-3,7.15-6.54,14.09-9.8,21.13-4.5,9.71-9.26,19.41-15.58,28.08q-1.56,2.15-3.23,4.18c-6.78,8.18-17.11,15.14-27.78,9.44-3.3-1.77-4.11-1-4.92,1.93-.4,1.42-1,3.2.35,4a27.06,27.06,0,0,0,3.13,1.59c5.71,2.52,11.76,4.63,18,4.63,18.18,0,40.76-10.09,58.27-40.27,6.68-11.49,16-35.86,19-43.1a.57.57,0,0,1,.76-.31.6.6,0,0,1,.35.45c4.22,35.06,23.58,77.41,43,82.3,7.31,1.84,14.83-1.87,21.27-5.13A179.76,179.76,0,0,0,187.74,196c1.67-1.09,3.09-1.92,2.26-4.53-.27-.85-.29-.84-.61-1.67-1-2.52-2.38-2.87-5.67-.92"/><path d="M298.32,75.45c7.72-.47,14-6.68,14-13.86S306,49,298.32,49.45s-14,6.67-14,13.86,6.26,12.62,14,12.14"/><path d="M429.65,66.62c7.74-.47,14-6.68,14-13.86s-6.25-12.62-14-12.14-14,6.67-14,13.86,6.26,12.62,14,12.14"/></svg>